<?xml version="1.0" standalone="no"?>
<!DOCTYPE svg PUBLIC "-//W3C//DTD SVG 20010904//EN"
 "http://www.w3.org/TR/2001/REC-SVG-20010904/DTD/svg10.dtd">
<svg version="1.0" xmlns="http://www.w3.org/2000/svg"
 width="512.000000pt" height="512.000000pt" viewBox="0 0 512.000000 512.000000"
 preserveAspectRatio="xMidYMid meet">

<g transform="translate(0.000000,512.000000) scale(0.100000,-0.100000)"
fill="#000000" stroke="none">
<path d="M388 4904 c-181 -43 -325 -187 -373 -371 -13 -49 -15 -245 -15 -1413
0 -1483 -3 -1406 58 -1530 35 -70 142 -177 213 -212 101 -50 162 -60 355 -56
l176 3 24 28 c26 30 32 83 14 117 -21 39 -50 45 -235 50 -155 5 -186 8 -226
27 -60 27 -125 92 -153 152 l-21 46 0 1375 0 1375 24 49 c31 63 84 116 147
147 l49 24 2135 0 2135 0 49 -24 c63 -31 116 -84 147 -147 l24 -49 0 -1375 0
-1375 -21 -46 c-28 -60 -93 -125 -153 -153 l-46 -21 -1580 -5 c-1710 -5 -1609
-2 -1634 -57 -15 -32 -14 -59 3 -92 25 -47 49 -51 291 -51 l225 0 0 -263 0
-263 -55 -23 c-71 -29 -139 -96 -173 -169 -25 -53 -27 -66 -27 -199 0 -142 0
-143 28 -170 l27 -28 760 0 760 0 27 28 c28 27 28 28 28 170 0 133 -2 146 -27
199 -34 73 -102 140 -173 169 l-55 23 0 263 0 263 778 0 c848 0 832 -1 952 58
70 35 177 142 212 212 61 124 58 47 58 1530 0 1168 -2 1364 -15 1413 -48 186
-193 328 -377 372 -91 21 -4252 21 -4340 -1z m2522 -3844 l0 -260 -350 0 -350
0 0 260 0 260 350 0 350 0 0 -260z m198 -480 c46 -28 72 -76 72 -132 l0 -48
-620 0 -620 0 0 48 c0 56 26 104 72 132 32 19 52 20 548 20 496 0 516 -1 548
-20z"/>
<path d="M2845 4221 c-38 -16 -60 -51 -60 -97 l0 -44 -183 0 c-190 0 -212 -4
-244 -44 -20 -24 -23 -77 -8 -107 23 -42 59 -49 252 -49 l183 0 0 -44 c0 -74
64 -121 130 -96 38 14 180 154 200 197 26 54 12 86 -77 178 -98 103 -141 127
-193 106z"/>
<path d="M1965 4068 c-49 -27 -70 -91 -45 -139 29 -52 116 -61 159 -15 71 75
-25 204 -114 154z"/>
<path d="M1183 3865 c-104 -29 -186 -91 -239 -180 -62 -106 -73 -320 -22 -442
14 -35 21 -63 16 -63 -5 0 -42 -15 -82 -33 -128 -60 -240 -185 -289 -325 -17
-48 -21 -90 -25 -265 -3 -152 -1 -216 8 -238 26 -61 6 -59 730 -59 724 0 704
-2 730 59 9 22 11 86 8 238 -4 175 -8 217 -25 265 -49 140 -161 265 -289 325
-40 18 -77 33 -82 33 -5 0 2 28 17 63 24 57 26 73 26 197 -1 114 -4 143 -22
188 -24 59 -70 122 -120 166 -80 68 -235 101 -340 71z m172 -204 c80 -36 115
-103 115 -221 0 -90 -16 -138 -59 -181 -101 -101 -273 -57 -311 79 -13 48 -13
156 0 204 21 76 102 138 180 138 19 0 53 -9 75 -19z"/>
<path d="M3743 3865 c-104 -29 -186 -91 -239 -180 -62 -106 -73 -320 -22 -442
14 -35 21 -63 16 -63 -5 0 -42 -15 -82 -33 -128 -60 -240 -185 -289 -325 -17
-48 -21 -90 -25 -265 -3 -152 -1 -216 8 -238 26 -61 6 -59 730 -59 724 0 704
-2 730 59 9 22 11 86 8 238 -4 175 -8 217 -25 265 -49 140 -161 265 -289 325
-40 18 -77 33 -82 33 -5 0 2 28 17 63 24 57 26 73 26 197 -1 114 -4 143 -22
188 -24 59 -70 122 -120 166 -80 68 -235 101 -340 71z m172 -204 c80 -36 115
-103 115 -221 0 -90 -16 -138 -59 -181 -101 -101 -273 -57 -311 79 -13 48 -13
156 0 204 21 76 102 138 180 138 19 0 53 -9 75 -19z m255 -692 c152 -71 210
-182 210 -401 l0 -108 -540 0 -540 0 0 105 c0 203 48 312 168 382 82 48 117
53 392 50 252 -2 256 -2 310 -28z"/>
<path d="M2013 3487 c-92 -92 -103 -107 -103 -139 0 -45 34 -92 129 -180 66
-61 78 -68 114 -68 59 0 97 38 97 97 l0 43 383 0 c237 0 396 4 420 11 40 11
77 56 77 94 0 38 -37 83 -77 94 -24 7 -183 11 -420 11 l-383 0 0 44 c0 37 -5
48 -31 70 -20 18 -42 26 -67 26 -32 0 -46 -10 -139 -103z"/>
<path d="M1134 1511 c-39 -17 -66 -62 -60 -101 7 -45 55 -90 96 -90 41 0 89
45 96 91 5 30 2 41 -22 68 -31 33 -76 46 -110 32z"/>
</g>
</svg>
