<?xml version="1.0" standalone="no"?>
<!DOCTYPE svg PUBLIC "-//W3C//DTD SVG 20010904//EN"
 "http://www.w3.org/TR/2001/REC-SVG-20010904/DTD/svg10.dtd">
<svg version="1.0" xmlns="http://www.w3.org/2000/svg"
 width="512.000000pt" height="512.000000pt" viewBox="0 0 512.000000 512.000000"
 preserveAspectRatio="xMidYMid meet">

<g transform="translate(0.000000,512.000000) scale(0.100000,-0.100000)"
fill="#000000" stroke="none">
<path d="M388 4904 c-181 -43 -325 -187 -373 -371 -13 -49 -15 -245 -15 -1413
0 -1483 -3 -1406 58 -1530 35 -70 142 -177 213 -212 101 -50 162 -60 355 -56
l176 3 24 28 c26 30 32 83 14 117 -21 39 -50 45 -235 50 -155 5 -186 8 -226
27 -60 27 -125 92 -153 152 l-21 46 0 1375 0 1375 21 46 c28 60 93 125 153
153 l46 21 2135 0 2135 0 46 -21 c60 -28 125 -93 153 -153 l21 -46 0 -1375 0
-1375 -21 -46 c-28 -60 -93 -125 -153 -153 l-46 -21 -1583 -5 -1584 -5 -29
-33 c-32 -36 -36 -69 -15 -111 25 -47 49 -51 291 -51 l225 0 0 -263 0 -263
-55 -23 c-71 -29 -139 -96 -173 -169 -25 -53 -27 -66 -27 -199 0 -142 0 -143
28 -170 l27 -28 760 0 760 0 27 28 c28 27 28 28 28 170 0 133 -2 146 -27 199
-34 73 -102 140 -173 169 l-55 23 0 263 0 263 778 0 c848 0 832 -1 952 58 70
35 177 142 212 212 61 124 58 47 58 1530 0 1168 -2 1364 -15 1413 -48 186
-193 328 -377 372 -91 21 -4252 21 -4340 -1z m2522 -3844 l0 -260 -350 0 -350
0 0 260 0 260 350 0 350 0 0 -260z m198 -480 c46 -28 72 -76 72 -132 l0 -48
-620 0 -620 0 0 48 c0 56 26 104 72 132 32 19 52 20 548 20 496 0 516 -1 548
-20z"/>
<path d="M2845 4221 c-39 -17 -60 -51 -60 -97 l0 -44 -183 0 c-115 0 -191 -4
-205 -11 -75 -39 -75 -139 0 -178 14 -7 90 -11 205 -11 l183 0 0 -44 c0 -79
69 -124 139 -91 49 23 192 175 200 212 10 42 -5 72 -69 142 -103 110 -160 143
-210 122z"/>
<path d="M1965 4069 c-74 -43 -73 -140 4 -179 72 -37 159 47 127 123 -7 18
-20 38 -29 45 -22 18 -78 24 -102 11z"/>
<path d="M1180 3865 c-148 -42 -253 -158 -281 -310 -18 -96 -7 -239 23 -312
l25 -61 -56 -21 c-166 -60 -298 -217 -336 -396 -19 -89 -21 -411 -3 -450 25
-56 11 -55 728 -55 717 0 703 -1 728 55 18 39 16 361 -3 450 -38 179 -170 336
-336 396 l-56 21 26 61 c24 57 26 73 25 197 0 113 -4 144 -21 188 -74 184
-278 288 -463 237z m168 -200 c87 -37 122 -100 122 -225 0 -125 -35 -188 -122
-225 -92 -38 -195 5 -239 100 -13 29 -19 64 -19 123 0 123 32 185 115 223 49
23 94 24 143 4z m269 -699 c75 -34 134 -95 171 -174 23 -51 27 -72 30 -194 l4
-138 -542 0 -542 0 4 138 c3 122 7 143 30 193 46 100 115 160 223 195 29 10
109 13 300 11 l260 -2 62 -29z"/>
<path d="M3740 3865 c-148 -42 -253 -158 -281 -310 -18 -96 -7 -239 23 -312
l25 -61 -56 -21 c-166 -60 -298 -217 -336 -396 -19 -89 -21 -411 -3 -450 25
-56 11 -55 728 -55 717 0 703 -1 728 55 18 39 16 361 -3 450 -38 179 -170 336
-336 396 l-56 21 26 61 c24 57 26 73 25 197 0 113 -4 144 -21 188 -74 184
-278 288 -463 237z m168 -200 c87 -37 122 -100 122 -225 0 -125 -35 -188 -122
-225 -92 -38 -195 5 -239 100 -13 29 -19 64 -19 123 0 123 32 185 115 223 49
23 94 24 143 4z m269 -699 c75 -34 134 -95 171 -174 23 -51 27 -72 30 -194 l4
-138 -542 0 -542 0 4 138 c3 122 7 143 30 193 46 100 115 160 223 195 29 10
109 13 300 11 l260 -2 62 -29z"/>
<path d="M2013 3487 c-92 -92 -103 -107 -103 -139 0 -23 10 -48 29 -74 32 -43
123 -132 161 -158 36 -24 83 -20 119 10 26 22 31 33 31 70 l0 44 388 1 c427 0
443 2 475 57 17 29 18 39 8 72 -21 72 -8 70 -463 70 l-408 0 0 49 c0 43 -4 53
-31 75 -20 18 -42 26 -67 26 -32 0 -46 -10 -139 -103z"/>
<path d="M1135 1511 c-37 -16 -60 -51 -60 -93 0 -33 6 -45 33 -69 20 -18 43
-29 62 -29 19 0 42 11 62 29 27 24 33 36 33 70 0 67 -71 117 -130 92z"/>
</g>
</svg>
